<?xml version="1.0" standalone="no"?>
<!DOCTYPE svg PUBLIC "-//W3C//DTD SVG 20010904//EN"
 "http://www.w3.org/TR/2001/REC-SVG-20010904/DTD/svg10.dtd">
<svg version="1.0" xmlns="http://www.w3.org/2000/svg"
 width="150.000000pt" height="150.000000pt" viewBox="0 0 150.000000 150.000000"
 preserveAspectRatio="xMidYMid meet">
<metadata>
Created by potrace 1.14, written by Peter Selinger 2001-2017
</metadata>
<g transform="translate(0.000000,150.000000) scale(0.100000,-0.100000)"
fill="#000000" stroke="none">
<path d="M682 1468 c-12 -6 -25 -23 -29 -37 -3 -14 -10 -32 -16 -38 -7 -10 -4
-13 11 -13 12 0 29 12 39 26 10 15 28 37 40 50 l22 24 -22 -1 c-12 0 -32 -5
-45 -11z"/>
<path d="M801 1470 c-13 -3 -35 -22 -48 -43 l-23 -37 25 0 c16 0 32 11 47 31
13 17 32 35 42 39 19 7 19 7 0 12 -10 2 -30 2 -43 -2z"/>
<path d="M576 1449 c-17 -13 -26 -30 -26 -48 0 -15 -5 -32 -12 -39 -17 -17 4
-15 30 4 12 8 29 32 38 52 8 20 20 40 27 44 8 5 5 8 -9 8 -12 0 -33 -9 -48
-21z"/>
<path d="M860 1420 l-39 -40 29 0 c20 0 41 10 62 30 17 17 38 30 47 31 12 0
11 3 -4 9 -37 16 -56 10 -95 -30z"/>
<path d="M493 1430 c-29 -17 -51 -55 -40 -67 3 -3 2 -16 -4 -30 -7 -18 -6 -22
4 -17 29 17 47 39 47 58 0 12 7 32 16 44 22 31 14 35 -23 12z"/>
<path d="M952 1390 l-32 -30 34 0 c18 0 45 9 59 20 14 11 33 20 44 20 15 0 16
2 3 10 -30 19 -76 11 -108 -20z"/>
<path d="M391 1384 c-27 -22 -30 -31 -28 -74 l2 -49 23 21 c14 14 22 33 22 55
0 19 5 43 10 54 14 25 8 24 -29 -7z"/>
<path d="M1057 1360 c-14 -11 -30 -20 -37 -20 -6 0 -8 -4 -5 -10 9 -15 62 -12
95 5 16 8 36 12 44 9 28 -11 17 5 -14 21 -38 20 -52 19 -83 -5z"/>
<path d="M302 1327 c-22 -23 -26 -59 -13 -106 11 -42 34 1 35 69 1 33 1 60 1
60 -1 0 -11 -10 -23 -23z"/>
<path d="M1132 1300 c-33 -18 -33 -19 -12 -30 17 -9 32 -9 65 0 24 7 48 9 54
5 6 -3 11 -2 11 4 0 12 -53 42 -72 40 -7 -1 -28 -10 -46 -19z"/>
<path d="M221 1254 c-22 -28 -28 -69 -11 -79 6 -3 10 -15 10 -26 0 -26 18 -24
25 4 4 19 3 127 -2 127 -1 0 -11 -12 -22 -26z"/>
<path d="M1237 1244 c-3 -4 -21 -9 -39 -13 l-33 -7 24 -13 c14 -8 51 -14 83
-15 l59 -1 -31 28 c-30 26 -50 33 -63 21z"/>
<path d="M751 1197 c-13 -6 -28 -23 -33 -36 -8 -22 -7 -23 25 -18 29 4 33 2
33 -15 -1 -12 6 -23 14 -25 11 -3 11 -2 3 4 -14 10 -14 52 0 70 9 12 2 33 -11
33 -4 0 -18 -6 -31 -13z m19 -32 c-14 -17 -40 -20 -40 -6 0 6 10 17 22 26 26
17 37 3 18 -20z"/>
<path d="M154 1179 c-23 -30 -23 -50 0 -94 17 -32 26 -40 30 -29 9 24 7 69 -3
80 -5 5 -11 20 -13 33 -2 20 -5 22 -14 10z"/>
<path d="M596 1171 c-18 -19 -25 -65 -13 -78 4 -3 13 -3 21 0 20 8 31 53 19
78 l-8 21 -19 -21z m24 -25 c0 -13 -7 -29 -15 -36 -12 -10 -15 -9 -15 8 0 27
10 52 21 52 5 0 9 -11 9 -24z"/>
<path d="M822 1165 c-12 -13 -17 -27 -12 -30 6 -4 10 -1 10 5 0 6 4 9 9 6 5
-3 8 2 7 12 0 9 6 17 14 17 10 0 15 -9 14 -30 -1 -16 3 -33 10 -37 16 -11 58
-9 76 2 23 16 -17 43 -53 36 -18 -4 -26 -2 -22 5 7 10 -11 39 -24 39 -4 0 -17
-11 -29 -25z m117 -34 c12 -8 9 -11 -12 -16 -15 -4 -35 -4 -44 -1 -15 6 -15 8
-3 16 19 12 41 12 59 1z"/>
<path d="M650 1160 c0 -11 2 -20 4 -20 2 0 6 9 9 20 3 11 1 20 -4 20 -5 0 -9
-9 -9 -20z"/>
<path d="M687 1159 c4 -13 8 -18 11 -10 2 7 -1 18 -6 23 -8 8 -9 4 -5 -13z"/>
<path d="M1259 1136 c14 -13 33 -20 58 -19 21 1 46 -3 56 -9 16 -8 17 -7 8 10
-18 34 -38 42 -90 41 l-52 -2 20 -21z"/>
<path d="M516 1130 c-14 -41 -10 -79 10 -87 34 -13 45 42 15 78 -16 19 -21 21
-25 9z m30 -34 c7 -28 -2 -49 -17 -41 -12 8 -12 65 1 65 5 0 12 -11 16 -24z"/>
<path d="M697 1123 c-9 -16 13 -54 38 -65 30 -13 39 -7 30 21 -12 39 -55 66
-68 44z m49 -28 c9 -14 14 -28 10 -32 -8 -9 -46 27 -46 44 0 21 18 15 36 -12z"/>
<path d="M640 1105 c-6 -8 -9 -19 -5 -25 4 -7 -1 -9 -17 -5 -33 8 -56 -9 -39
-29 10 -12 8 -15 -20 -18 -35 -3 -49 -22 -25 -31 10 -4 13 -1 9 9 -4 10 2 14
21 14 15 0 29 -7 32 -15 4 -8 11 -15 16 -15 6 0 8 7 4 15 -4 11 2 15 24 15 32
0 37 9 18 28 -7 7 -8 12 -4 12 5 0 3 7 -4 15 -9 11 -10 19 -2 27 14 14 35 0
27 -21 -5 -12 -4 -13 6 -4 10 10 9 15 -1 28 -16 19 -24 19 -40 0z m5 -65 c8
-13 -21 -13 -47 1 -16 9 -18 13 -7 19 13 9 43 -2 54 -20z"/>
<path d="M90 1070 c-11 -26 -10 -34 6 -56 11 -15 24 -36 31 -47 11 -20 12 -20
19 7 5 20 0 41 -19 77 l-25 49 -12 -30z"/>
<path d="M847 1093 c-12 -12 -7 -59 8 -79 13 -16 16 -17 25 -4 25 38 -4 113
-33 83z m33 -50 c0 -31 -18 -29 -26 1 -7 31 4 55 17 35 5 -8 9 -24 9 -36z"/>
<path d="M782 1068 c2 -12 10 -23 18 -25 12 -4 13 -3 1 5 -8 6 -11 17 -8 26 4
9 2 16 -4 16 -6 0 -9 -10 -7 -22z"/>
<path d="M817 1069 c4 -13 8 -18 11 -10 2 7 -1 18 -6 23 -8 8 -9 4 -5 -13z"/>
<path d="M900 1060 c0 -11 4 -20 10 -20 5 0 7 7 4 15 -4 8 -1 15 4 15 19 0 44
-33 39 -51 -3 -11 -1 -19 4 -19 14 0 11 33 -7 58 -19 28 -54 30 -54 2z"/>
<path d="M1300 1069 c0 -14 39 -39 71 -45 19 -4 43 -11 53 -17 19 -9 19 -9 0
24 -18 30 -26 35 -72 39 -29 3 -52 3 -52 -1z"/>
<path d="M57 1007 c-16 -40 -7 -72 28 -106 l35 -33 0 30 c0 17 -10 43 -24 59
-13 15 -25 37 -28 48 -3 19 -4 19 -11 2z"/>
<path d="M1346 978 c16 -29 38 -48 54 -48 10 0 29 -9 44 -21 30 -24 32 -20 10
27 -10 21 -26 36 -40 39 -13 3 -36 7 -50 10 -19 4 -24 2 -18 -7z"/>
<path d="M26 903 c-11 -34 0 -56 44 -92 l40 -32 0 27 c0 17 -12 37 -34 58 -18
17 -35 38 -38 46 -4 11 -7 9 -12 -7z"/>
<path d="M1370 896 c0 -12 24 -56 30 -56 4 0 24 -11 44 -25 26 -18 36 -21 36
-10 0 30 -24 66 -49 71 -14 3 -34 9 -43 15 -10 5 -18 7 -18 5z"/>
<path d="M753 868 c-33 -42 -11 -101 35 -96 15 2 25 8 23 13 -2 6 -12 9 -22 7
-21 -4 -41 28 -29 47 4 8 17 14 29 15 12 0 21 6 21 11 1 15 -45 18 -57 3z"/>
<path d="M856 864 c-31 -30 -12 -94 28 -94 25 0 56 28 56 51 0 24 -30 59 -50
59 -10 0 -26 -7 -34 -16z m52 -33 c5 -33 -14 -49 -34 -29 -13 13 -14 20 -4 37
14 27 34 23 38 -8z"/>
<path d="M959 876 c-8 -8 3 -106 12 -106 5 0 9 9 9 20 0 13 7 20 20 20 11 0
20 5 20 10 0 6 -9 10 -20 10 -11 0 -20 7 -20 15 0 9 9 15 25 15 14 0 25 5 25
10 0 9 -62 15 -71 6z"/>
<path d="M1050 825 c0 -30 5 -55 10 -55 6 0 10 9 10 20 0 15 7 20 25 20 14 0
25 5 25 10 0 6 -11 10 -25 10 -16 0 -25 6 -25 15 0 9 9 15 25 15 14 0 25 5 25
10 0 6 -16 10 -35 10 l-35 0 0 -55z"/>
<path d="M1140 825 l0 -55 35 0 c19 0 35 5 35 10 0 6 -11 10 -25 10 -14 0 -25
5 -25 10 0 6 9 10 20 10 12 0 20 7 20 16 0 11 -6 15 -20 11 -13 -3 -20 0 -20
9 0 8 10 14 25 14 14 0 25 5 25 10 0 6 -16 10 -35 10 l-35 0 0 -55z"/>
<path d="M1230 825 l0 -55 35 0 c19 0 35 5 35 10 0 6 -11 10 -25 10 -15 0 -25
6 -25 14 0 9 7 12 20 9 14 -4 20 0 20 12 0 13 -6 16 -21 12 -13 -3 -19 -1 -16
6 2 7 13 13 25 15 35 5 25 22 -13 22 l-35 0 0 -55z"/>
<path d="M152 838 c3 -22 8 -23 96 -26 l92 -3 0 26 0 25 -96 0 c-93 0 -95 -1
-92 -22z"/>
<path d="M350 820 c0 -38 2 -40 30 -40 28 0 30 2 30 40 0 38 -2 40 -30 40 -28
0 -30 -2 -30 -40z"/>
<path d="M480 740 l0 -120 30 0 30 0 0 120 0 120 -30 0 -30 0 0 -120z"/>
<path d="M560 835 c0 -24 2 -25 75 -25 73 0 75 1 75 25 0 24 -2 25 -75 25 -73
0 -75 -1 -75 -25z"/>
<path d="M10 803 c0 -39 22 -72 56 -83 18 -6 35 -16 38 -23 2 -7 5 -3 5 8 1
26 -26 65 -44 65 -7 0 -23 12 -34 28 -19 26 -20 26 -21 5z"/>
<path d="M220 710 c0 -89 0 -90 24 -90 24 0 25 2 28 90 l3 90 -27 0 -28 0 0
-90z"/>
<path d="M560 740 c0 -57 1 -60 25 -60 24 0 25 3 25 60 0 57 -1 60 -25 60 -24
0 -25 -3 -25 -60z"/>
<path d="M1390 778 c0 -18 44 -68 60 -68 4 0 12 -10 18 -22 10 -21 11 -20 11
12 1 44 -7 56 -52 79 -36 19 -37 19 -37 -1z"/>
<path d="M350 746 c0 -20 6 -24 38 -27 63 -6 82 0 82 27 0 23 -3 24 -60 24
-57 0 -60 -1 -60 -24z"/>
<path d="M620 746 c0 -20 6 -24 36 -28 38 -4 51 8 40 37 -3 9 -19 15 -41 15
-30 0 -35 -3 -35 -24z"/>
<path d="M788 743 c-2 -4 -3 -30 -3 -57 0 -45 2 -49 27 -52 46 -5 61 15 51 67
-8 40 -11 44 -40 47 -17 2 -33 -1 -35 -5z m41 -34 c-16 -10 -23 -4 -14 10 3 6
11 8 17 5 6 -4 5 -9 -3 -15z m21 -40 c0 -5 -9 -9 -20 -9 -11 0 -20 6 -20 14 0
9 7 12 20 9 11 -3 20 -9 20 -14z"/>
<path d="M892 693 c3 -57 3 -58 36 -61 24 -2 32 1 32 12 0 9 -9 16 -20 16 -11
0 -20 5 -20 10 0 6 9 10 20 10 11 0 20 5 20 10 0 6 -9 10 -20 10 -11 0 -20 5
-20 10 0 6 9 10 20 10 11 0 20 7 20 15 0 11 -11 15 -35 15 l-36 0 3 -57z"/>
<path d="M1015 738 c-26 -73 -34 -102 -29 -107 3 -3 11 2 18 12 17 22 42 22
55 0 17 -31 25 -5 12 39 -14 46 -28 68 -43 68 -5 0 -11 -6 -13 -12z m25 -43
c0 -8 -4 -15 -10 -15 -5 0 -7 7 -4 15 4 8 8 15 10 15 2 0 4 -7 4 -15z"/>
<path d="M1107 743 c-7 -17 -1 -98 8 -102 6 -3 13 8 16 25 4 16 7 22 8 13 0
-9 10 -24 21 -34 17 -15 20 -16 25 -3 10 26 1 101 -12 106 -8 2 -13 -7 -13
-25 l-1 -28 -15 28 c-14 26 -29 34 -37 20z"/>
<path d="M10 706 c0 -33 21 -67 47 -76 16 -6 36 -15 46 -21 17 -9 18 -7 12 13
-4 13 -16 31 -28 40 -73 58 -77 60 -77 44z"/>
<path d="M357 704 c-4 -4 -7 -25 -7 -46 0 -36 2 -38 31 -38 29 0 30 1 27 43
-2 33 -7 43 -23 45 -12 2 -24 0 -28 -4z"/>
<path d="M1390 675 c0 -17 11 -36 30 -53 17 -15 30 -32 30 -40 0 -7 5 -10 10
-7 6 3 10 19 10 35 0 21 -10 36 -40 60 l-40 32 0 -27z"/>
<path d="M560 645 c0 -24 2 -25 75 -25 73 0 75 1 75 25 0 24 -2 25 -75 25 -73
0 -75 -1 -75 -25z"/>
<path d="M30 594 c0 -31 29 -64 56 -64 14 0 34 -5 45 -10 13 -8 19 -7 19 0 0
17 -47 60 -66 60 -10 0 -26 7 -36 17 -17 15 -18 15 -18 -3z"/>
<path d="M1370 579 c0 -19 10 -43 25 -61 14 -16 25 -37 25 -46 0 -15 2 -15 10
-2 20 32 11 72 -25 107 l-35 34 0 -32z"/>
<path d="M50 507 c0 -33 39 -65 85 -69 25 -2 45 -1 45 2 -1 21 -46 50 -79 50
-11 0 -27 7 -35 16 -13 13 -16 13 -16 1z"/>
<path d="M875 511 c-3 -5 -1 -12 5 -16 5 -3 10 1 10 9 0 18 -6 21 -15 7z"/>
<path d="M1340 479 c0 -19 7 -44 15 -55 8 -10 15 -30 15 -44 l1 -25 14 25 c21
37 18 61 -15 100 l-30 34 0 -35z"/>
<path d="M956 491 c-3 -4 -31 -9 -62 -9 -66 0 -73 -5 -49 -32 12 -13 14 -20 5
-20 -10 0 -10 -3 0 -15 10 -12 9 -16 -5 -21 -10 -4 -21 -1 -27 7 -8 12 -9 11
-5 -1 2 -8 13 -16 25 -18 21 -3 27 6 23 36 -1 8 6 11 21 7 13 -3 29 -1 37 4
12 8 12 12 2 25 -12 14 -10 16 12 16 24 0 25 -2 14 -29 -9 -24 -7 -34 7 -55
19 -31 31 -27 41 11 4 19 0 34 -14 53 -15 20 -17 30 -8 39 8 8 8 11 0 11 -7 0
-14 -4 -17 -9z m-52 -34 c18 -13 18 -14 1 -21 -16 -6 -65 16 -65 29 0 11 47 4
64 -8z m79 -29 c3 -12 2 -28 -2 -36 -7 -13 -11 -11 -21 7 -12 23 -8 51 9 51 5
0 11 -10 14 -22z"/>
<path d="M510 480 c0 -41 64 -97 76 -66 6 15 -25 70 -34 61 -3 -3 3 -14 13
-25 20 -22 15 -36 -9 -27 -19 8 -41 47 -26 47 6 0 8 5 5 10 -8 13 -25 13 -25
0z"/>
<path d="M607 483 c-13 -12 -7 -70 8 -83 19 -16 35 -4 35 26 0 43 -25 76 -43
57z m27 -29 c9 -23 7 -54 -3 -54 -11 0 -21 25 -21 51 0 23 15 25 24 3z"/>
<path d="M693 439 c9 -6 15 -14 12 -20 -9 -13 -33 -11 -38 4 -2 7 -3 6 -3 -3
2 -19 36 -26 46 -9 11 17 1 39 -19 39 -14 -1 -14 -2 2 -11z"/>
<path d="M727 444 c-12 -13 17 -66 41 -75 31 -12 43 -1 31 28 -8 22 -62 57
-72 47z m48 -34 c21 -23 12 -39 -13 -24 -19 12 -29 44 -14 44 5 0 17 -9 27
-20z"/>
<path d="M1294 407 c-3 -10 -3 -32 1 -50 3 -17 7 -44 8 -59 2 -24 4 -25 18
-12 27 24 28 59 3 100 -19 31 -24 35 -30 21z"/>
<path d="M105 387 c20 -31 37 -38 93 -35 43 1 43 1 24 21 -12 11 -37 21 -59
22 -21 2 -46 6 -57 10 -18 8 -18 7 -1 -18z"/>
<path d="M879 386 c-13 -29 -4 -79 14 -73 19 6 39 55 32 77 -9 27 -33 25 -46
-4z m27 -42 c-3 -9 -10 -12 -16 -9 -14 9 -13 38 3 54 10 10 13 8 15 -9 2 -12
1 -28 -2 -36z"/>
<path d="M545 377 c-24 -18 -11 -37 25 -37 38 0 60 9 60 25 0 26 -55 33 -85
12z m68 -12 c1 -5 -13 -11 -30 -13 -31 -3 -42 6 -26 22 10 10 53 3 56 -9z"/>
<path d="M710 375 c10 -12 9 -16 -5 -21 -9 -4 -20 -2 -24 3 -11 18 -29 -11
-20 -32 7 -19 8 -19 8 1 1 17 6 20 26 16 21 -4 23 -7 14 -26 -10 -20 -9 -20
10 2 19 22 51 30 51 13 0 -6 -10 -17 -22 -25 -12 -9 -18 -16 -12 -16 14 0 44
33 44 48 0 18 -18 24 -40 12 -17 -9 -21 -8 -19 2 3 25 -1 38 -12 38 -8 0 -8
-5 1 -15z"/>
<path d="M810 355 c-15 -18 -6 -45 13 -45 23 0 38 23 25 40 -8 12 -9 12 -4 -2
6 -21 -12 -34 -26 -20 -8 8 -7 16 2 27 7 8 10 15 7 15 -2 0 -10 -7 -17 -15z"/>
<path d="M1241 336 c-9 -10 -14 -33 -12 -54 1 -21 3 -47 3 -59 0 -32 15 -28
34 8 12 24 13 37 5 58 -5 14 -11 35 -13 45 -3 18 -4 18 -17 2z"/>
<path d="M621 324 c0 -11 3 -14 6 -6 3 7 2 16 -1 19 -3 4 -6 -2 -5 -13z"/>
<path d="M164 298 c18 -30 57 -39 100 -24 49 17 33 29 -50 36 -56 5 -60 4 -50
-12z"/>
<path d="M1162 248 c-14 -29 -20 -119 -8 -115 6 2 18 14 28 28 15 19 17 34 12
67 -7 47 -16 52 -32 20z"/>
<path d="M245 213 c31 -27 51 -29 95 -7 45 23 21 35 -60 32 l-61 -3 26 -22z"/>
<path d="M1088 196 c-10 -9 -20 -29 -23 -44 -3 -15 -10 -39 -14 -54 l-9 -28
29 15 c31 17 42 44 37 96 -3 31 -4 32 -20 15z"/>
<path d="M395 183 c-11 -3 -24 -9 -29 -14 -6 -5 -21 -9 -35 -9 -25 -1 -25 -1
-7 -15 26 -19 80 -19 96 0 7 8 20 15 29 15 13 1 13 3 -3 15 -11 8 -22 14 -25
14 -3 -1 -15 -3 -26 -6z"/>
<path d="M996 147 c-14 -15 -26 -34 -26 -44 0 -10 -7 -29 -16 -41 -13 -19 -13
-22 -1 -22 29 0 59 36 67 80 5 25 7 47 5 49 -2 2 -15 -8 -29 -22z"/>
<path d="M443 115 c-31 -17 -38 -25 -27 -29 37 -14 76 -5 106 24 l30 30 -34
-1 c-18 0 -52 -11 -75 -24z"/>
<path d="M903 115 c-11 -8 -30 -33 -41 -55 -19 -39 -19 -40 -1 -40 26 0 59 35
59 63 0 13 5 28 12 35 17 17 -3 15 -29 -3z"/>
<path d="M557 85 c-15 -14 -36 -25 -45 -25 -15 0 -15 -2 -2 -10 31 -20 69 -11
104 25 l35 35 -32 0 c-19 -1 -43 -10 -60 -25z"/>
<path d="M785 83 c-14 -16 -34 -38 -45 -50 l-19 -23 27 0 c32 0 72 32 72 58 0
10 5 23 12 30 9 9 8 12 -5 12 -10 0 -29 -12 -42 -27z"/>
<path d="M652 60 l-40 -40 32 0 c36 0 54 12 79 53 17 27 17 27 -6 27 -14 0
-40 -16 -65 -40z"/>
</g>
</svg>
